<svg class="icon" width="32px" height="32.00px" viewBox="0 0 1024 1024" version="1.1" xmlns="http://www.w3.org/2000/svg"><path fill="#1296db" d="M182.857143 1024a73.142857 73.142857 0 0 1-34.377143-8.777143A73.142857 73.142857 0 0 1 109.714286 950.857143V73.142857A73.142857 73.142857 0 0 1 148.48 8.777143a73.142857 73.142857 0 0 1 73.142857 3.657143l658.285714 438.857143A73.142857 73.142857 0 0 1 914.285714 512a73.142857 73.142857 0 0 1-32.914285 60.708571l-658.285715 438.857143A73.142857 73.142857 0 0 1 182.857143 1024zM256 209.92v604.16L709.485714 512z"  /></svg>