<svg class="icon" width="32px" height="25.60px" viewBox="0 0 1280 1024" version="1.1" xmlns="http://www.w3.org/2000/svg"><path fill="#1296db" d="M1194.666667 1024a85.333333 85.333333 0 0 1-49.493334-16.213333L768 738.986667V938.666667a85.333333 85.333333 0 0 1-134.826667 69.12l-597.333333-426.666667a85.333333 85.333333 0 0 1 0-138.24l597.333333-426.666667A85.333333 85.333333 0 0 1 768 85.333333v195.413334L1146.026667 15.36A85.333333 85.333333 0 0 1 1280 85.333333v853.333334a85.333333 85.333333 0 0 1-46.08 75.946666A91.306667 91.306667 0 0 1 1194.666667 1024zM768 530.773333l341.333333 242.346667V249.173333l-341.333333 238.933334zM232.106667 512L597.333333 773.12V250.88z"  /></svg>